<svg width="24" height="24" viewBox="0 0 24 24" fill="none" xmlns="http://www.w3.org/2000/svg">
<circle cx="12" cy="12" r="9" fill="#EA2715"/>
<path d="M12.6797 14.5265C12.6703 14.5452 12.6657 14.5592 12.6657 14.5685C12.6657 14.5779 12.661 14.5872 12.6517 14.5965C12.633 14.6152 12.563 14.6245 12.4417 14.6245H11.4057C11.3683 14.6245 11.3497 14.6152 11.3497 14.5965C11.3217 14.5685 11.3077 14.4892 11.3077 14.3585L11.1117 6.96655C11.1023 6.77055 11.1117 6.65388 11.1397 6.61655C11.1677 6.57921 11.247 6.56055 11.3777 6.56055H12.6237C12.7543 6.56055 12.829 6.57921 12.8477 6.61655C12.8757 6.65388 12.885 6.77055 12.8757 6.96655L12.6797 14.3585V14.5265ZM11.9937 17.4385C11.7137 17.4385 11.4803 17.3452 11.2937 17.1585C11.107 16.9625 11.0137 16.7292 11.0137 16.4585C11.0137 16.1879 11.107 15.9545 11.2937 15.7585C11.4803 15.5625 11.7137 15.4645 11.9937 15.4645C12.2737 15.4645 12.507 15.5625 12.6937 15.7585C12.8897 15.9545 12.9877 16.1879 12.9877 16.4585C12.9877 16.7292 12.8897 16.9625 12.6937 17.1585C12.507 17.3452 12.2737 17.4385 11.9937 17.4385Z" fill="white"/>
</svg>
