<svg width="24" height="24" viewBox="0 0 24 24" fill="none" xmlns="http://www.w3.org/2000/svg">
<circle cx="12" cy="12" r="9" fill="#414A5B"/>
<path d="M11.35 17.144C11.3033 17.144 11.2613 17.1253 11.224 17.088C11.196 17.06 11.182 17.0227 11.182 16.976V9.598C11.182 9.55133 11.196 9.514 11.224 9.486C11.2613 9.44867 11.3033 9.43 11.35 9.43H12.526C12.5727 9.43 12.61 9.44867 12.638 9.486C12.6753 9.514 12.694 9.55133 12.694 9.598V16.976C12.694 17.0227 12.6753 17.06 12.638 17.088C12.61 17.1253 12.5727 17.144 12.526 17.144H11.35ZM11.952 7.904C11.6813 7.904 11.4527 7.81533 11.266 7.638C11.0887 7.45133 11 7.22733 11 6.966C11 6.69533 11.0887 6.46667 11.266 6.28C11.4527 6.09333 11.6813 6 11.952 6C12.2227 6 12.4513 6.09333 12.638 6.28C12.8247 6.46667 12.918 6.69533 12.918 6.966C12.918 7.22733 12.8247 7.45133 12.638 7.638C12.4513 7.81533 12.2227 7.904 11.952 7.904Z" fill="white"/>
</svg>
