<svg width="24" height="24" viewBox="0 0 24 24" fill="none" xmlns="http://www.w3.org/2000/svg">
<path fill-rule="evenodd" clip-rule="evenodd" d="M14.1212 5.70711C14.5117 5.31658 14.5117 4.68342 14.1212 4.29289C13.7306 3.90237 13.0975 3.90237 12.707 4.29289L5.70695 11.2929L4.99985 12L5.70695 12.7071L12.707 19.7071C13.0975 20.0976 13.7306 20.0976 14.1212 19.7071C14.5117 19.3166 14.5117 18.6834 14.1212 18.2929L7.82827 12L14.1212 5.70711ZM18.1212 5.70711C18.5117 5.31658 18.5117 4.68342 18.1212 4.29289C17.7306 3.90237 17.0975 3.90237 16.707 4.29289L9.70695 11.2929L8.99985 12L9.70695 12.7071L16.707 19.7071C17.0975 20.0976 17.7306 20.0976 18.1212 19.7071C18.5117 19.3166 18.5117 18.6834 18.1212 18.2929L11.8283 12L18.1212 5.70711Z" fill="#DFE2E6"/>
</svg>
