<svg width="24" height="24" viewBox="0 0 24 24" fill="none" xmlns="http://www.w3.org/2000/svg">
<circle cx="12" cy="12" r="9" fill="#414A5B"/>
<path d="M14.0783 11.0347C13.8263 11.3707 13.5883 11.702 13.3643 12.0287C13.1403 12.346 12.9537 12.6027 12.8043 12.7987C12.6457 13.032 12.5243 13.2887 12.4403 13.5687C12.3563 13.8487 12.3143 14.166 12.3143 14.5207C12.3143 14.6887 12.235 14.7727 12.0763 14.7727H11.0403C10.9657 14.7727 10.9097 14.7587 10.8723 14.7307C10.8443 14.7027 10.8303 14.642 10.8303 14.5487C10.8303 14.2594 10.8583 13.9654 10.9143 13.6667C10.9703 13.3587 11.045 13.0974 11.1383 12.8827C11.241 12.6587 11.3623 12.43 11.5023 12.1967C11.6517 11.9634 11.8243 11.7394 12.0203 11.5247C12.3097 11.198 12.5523 10.848 12.7483 10.4747C12.9537 10.092 13.0563 9.72802 13.0563 9.38269C13.0563 8.94402 12.9117 8.60802 12.6223 8.37469C12.333 8.14135 11.983 8.02469 11.5723 8.02469C11.2177 8.02469 10.8957 8.05269 10.6063 8.10869C10.3263 8.16469 10.023 8.26269 9.69634 8.40269C9.50034 8.49602 9.40234 8.46335 9.40234 8.30469V7.14269C9.40234 7.04935 9.45368 6.98402 9.55634 6.94669C9.71501 6.89069 9.88768 6.83935 10.0743 6.79269C10.2703 6.73669 10.4617 6.69469 10.6483 6.66669C10.8443 6.62935 11.0357 6.60135 11.2223 6.58269C11.409 6.56402 11.5723 6.55469 11.7123 6.55469C12.123 6.55469 12.5057 6.62002 12.8603 6.75069C13.215 6.88135 13.5183 7.06335 13.7703 7.29669C14.0317 7.53002 14.2323 7.80535 14.3723 8.12269C14.5217 8.43069 14.5963 8.77135 14.5963 9.14469C14.5963 9.59269 14.5497 9.96602 14.4563 10.2647C14.363 10.5634 14.237 10.82 14.0783 11.0347ZM11.5023 17.4467C11.2503 17.4467 11.0357 17.358 10.8583 17.1807C10.6903 17.0034 10.6063 16.7887 10.6063 16.5367C10.6063 16.294 10.6903 16.084 10.8583 15.9067C11.0357 15.72 11.2503 15.6267 11.5023 15.6267C11.7543 15.6267 11.969 15.72 12.1463 15.9067C12.333 16.084 12.4263 16.294 12.4263 16.5367C12.4263 16.7887 12.333 17.0034 12.1463 17.1807C11.969 17.358 11.7543 17.4467 11.5023 17.4467Z" fill="white"/>
</svg>
