<svg width="14" height="14" viewBox="0 0 14 14" fill="none" xmlns="http://www.w3.org/2000/svg">
<path fill-rule="evenodd" clip-rule="evenodd" d="M5.58586 6.728L0.500076 11.8138C0.109551 12.2043 0.109551 12.8375 0.500076 13.228C0.8906 13.6185 1.52377 13.6185 1.91429 13.228L7.00008 8.14221L12.1067 13.2488C12.4972 13.6393 13.1304 13.6393 13.5209 13.2488C13.9114 12.8583 13.9114 12.2251 13.5209 11.8346L8.41429 6.728L13.228 1.91429C13.6185 1.52376 13.6185 0.8906 13.228 0.500076C12.8375 0.109551 12.2043 0.109551 11.8138 0.500075L7.00008 5.31378L2.20718 0.52089C1.81666 0.130366 1.18349 0.130366 0.792969 0.52089C0.402444 0.911415 0.402445 1.54458 0.792969 1.9351L5.58586 6.728Z" fill="#192033"/>
</svg>
