<svg width="24" height="24" viewBox="0 0 24 24" fill="none" xmlns="http://www.w3.org/2000/svg">
<rect width="24" height="24" fill="#BBC0C6"/>
<path d="M12.2394 6.57189L13.4669 7.77155C13.543 7.84651 13.6335 7.906 13.7332 7.94661C13.833 7.98721 13.9399 8.00812 14.048 8.00812C14.156 8.00812 14.263 7.98721 14.3627 7.94661C14.4624 7.906 14.5529 7.84651 14.629 7.77155C14.7532 7.64415 14.8309 7.48027 14.8502 7.30532C14.8694 7.13037 14.8291 6.9541 14.7354 6.80383H17.7306C17.9477 6.80383 18.1558 6.71956 18.3093 6.56958C18.4628 6.41959 18.549 6.21617 18.549 6.00406C18.549 5.79195 18.4628 5.58852 18.3093 5.43854C18.1558 5.28855 17.9477 5.20429 17.7306 5.20429H14.7354C14.8291 5.05402 14.8694 4.87775 14.8502 4.70279C14.8309 4.52784 14.7532 4.36397 14.629 4.23657C14.5529 4.16161 14.4624 4.10211 14.3627 4.06151C14.263 4.0209 14.156 4 14.048 4C13.9399 4 13.833 4.0209 13.7332 4.06151C13.6335 4.10211 13.543 4.16161 13.4669 4.23657L12.2394 5.43622C12.1649 5.51228 12.1065 5.60197 12.0675 5.70015C11.9857 5.89486 11.9857 6.11326 12.0675 6.30797C12.1065 6.40614 12.1649 6.49583 12.2394 6.57189ZM20.9386 9.69899C20.8997 9.60081 20.8413 9.51112 20.7668 9.43506L19.5392 8.23541C19.4631 8.16045 19.3726 8.10095 19.2729 8.06035C19.1732 8.01975 19.0662 7.99884 18.9582 7.99884C18.8501 7.99884 18.7432 8.01975 18.6434 8.06035C18.5437 8.10095 18.4532 8.16045 18.3771 8.23541C18.2529 8.36281 18.1752 8.52668 18.156 8.70163C18.1367 8.87659 18.1771 9.05286 18.2707 9.20313H15.2755C15.0585 9.20313 14.8503 9.28739 14.6968 9.43738C14.5434 9.58736 14.4571 9.79079 14.4571 10.0029C14.4571 10.215 14.5434 10.4184 14.6968 10.5684C14.8503 10.7184 15.0585 10.8027 15.2755 10.8027H18.2707C18.1771 10.9529 18.1367 11.1292 18.156 11.3042C18.1752 11.4791 18.2529 11.643 18.3771 11.7704C18.4532 11.8453 18.5437 11.9048 18.6434 11.9454C18.7432 11.9861 18.8501 12.007 18.9582 12.007C19.0662 12.007 19.1732 11.9861 19.2729 11.9454C19.3726 11.9048 19.4631 11.8453 19.5392 11.7704L20.7668 10.5707C20.8413 10.4947 20.8997 10.405 20.9386 10.3068C21.0205 10.1121 21.0205 9.8937 20.9386 9.69899ZM11.1837 10.4028C10.5362 10.4028 9.90335 10.5904 9.36503 10.9419C8.82671 11.2934 8.40714 11.7931 8.15938 12.3776C7.91162 12.9622 7.8468 13.6054 7.9731 14.226C8.09941 14.8465 8.41118 15.4165 8.86898 15.8639C9.32678 16.3113 9.91006 16.616 10.5451 16.7395C11.18 16.8629 11.8382 16.7995 12.4364 16.5574C13.0345 16.3153 13.5458 15.9052 13.9055 15.3792C14.2652 14.8531 14.4571 14.2346 14.4571 13.6019C14.4571 12.7534 14.1123 11.9397 13.4984 11.3398C12.8845 10.7398 12.0519 10.4028 11.1837 10.4028ZM11.1837 15.2014C10.86 15.2014 10.5435 15.1076 10.2744 14.9318C10.0052 14.7561 9.79541 14.5062 9.67153 14.214C9.54765 13.9217 9.51523 13.6001 9.57839 13.2898C9.64154 12.9795 9.79743 12.6945 10.0263 12.4708C10.2552 12.2471 10.5469 12.0948 10.8644 12.0331C11.1819 11.9713 11.511 12.003 11.81 12.1241C12.1091 12.2451 12.3647 12.4502 12.5446 12.7132C12.7244 12.9762 12.8204 13.2855 12.8204 13.6019C12.8204 14.0261 12.648 14.4329 12.341 14.7329C12.0341 15.0329 11.6178 15.2014 11.1837 15.2014ZM18.549 12.8021C18.3319 12.8021 18.1238 12.8863 17.9703 13.0363C17.8168 13.1863 17.7306 13.3897 17.7306 13.6019V17.6007C17.7306 17.8128 17.6444 18.0162 17.4909 18.1662C17.3374 18.3162 17.1293 18.4005 16.9122 18.4005H5.4551C5.23806 18.4005 5.0299 18.3162 4.87643 18.1662C4.72296 18.0162 4.63673 17.8128 4.63673 17.6007V11.2026C4.63673 10.9904 4.72296 10.787 4.87643 10.637C5.0299 10.487 5.23806 10.4028 5.4551 10.4028H7.09184C7.27132 10.4114 7.4487 10.362 7.59661 10.2622C7.74451 10.1625 7.85471 10.018 7.9102 9.85094L8.35212 8.55532C8.40328 8.40127 8.50108 8.26604 8.6326 8.1675C8.76412 8.06896 8.92315 8.01176 9.08865 8.00348H10.3653C10.5824 8.00348 10.7905 7.91922 10.944 7.76923C11.0975 7.61925 11.1837 7.41582 11.1837 7.20371C11.1837 6.9916 11.0975 6.78817 10.944 6.63819C10.7905 6.4882 10.5824 6.40394 10.3653 6.40394H9.08865C8.57194 6.40376 8.06834 6.56291 7.64957 6.85872C7.2308 7.15453 6.91821 7.57192 6.75631 8.05146L6.50261 8.80325H5.4551C4.80397 8.80325 4.1795 9.05603 3.71908 9.50599C3.25866 9.95594 3 10.5662 3 11.2026V17.6007C3 18.237 3.25866 18.8473 3.71908 19.2973C4.1795 19.7472 4.80397 20 5.4551 20H16.9122C17.5634 20 18.1878 19.7472 18.6483 19.2973C19.1087 18.8473 19.3673 18.237 19.3673 17.6007V13.6019C19.3673 13.3897 19.2811 13.1863 19.1277 13.0363C18.9742 12.8863 18.766 12.8021 18.549 12.8021Z" fill="#192033"/>
</svg>
