<?xml version="1.0" encoding="utf-8"?>
<!-- Generator: Adobe Illustrator 27.7.0, SVG Export Plug-In . SVG Version: 6.00 Build 0)  -->
<svg version="1.1" id="Layer_1" xmlns="http://www.w3.org/2000/svg" xmlns:xlink="http://www.w3.org/1999/xlink" x="0px" y="0px"
	 viewBox="0 0 365.97 96.54" style="enable-background:new 0 0 365.97 96.54;" xml:space="preserve">
<style type="text/css">
	.st0{fill:#FFFFFF;}
</style>
<g>
	<g>
		<path class="st0" d="M12.87,48.16c0-12.44,9.23-21.07,21.54-21.07c7.38,0,11.62,3.72,11.62,3.72v10.38h-0.08
			c0,0-4.15-4.52-11.38-4.52c-7.08,0-11.92,4.83-11.92,11.49c0,6.5,4.85,11.41,12,11.41c7.77,0,11.31-4.36,11.31-4.36h0.08v10.46
			c0,0-4.15,3.57-11.62,3.57C22.1,69.23,12.87,60.91,12.87,48.16z"/>
	</g>
	<g>
		<path class="st0" d="M49.46,67.88V12.42h6.76c1.71,0,3.09,1.38,3.09,3.09V35.4h0.08c1.46-3.96,6.62-8.64,12.08-8.64
			c6.85,0,14.15,4.99,14.15,19.17v21.95h-10V46.41c0-7.21-2.92-9.98-7-9.98c-4.54,0-9.31,3.41-9.31,11.49v19.97H49.46z"/>
	</g>
	<g>
		<path class="st0" d="M129.24,48.08c0,11.73-9.15,21-20.39,21s-20.31-9.27-20.31-21c0-11.8,9.08-20.84,20.31-20.84
			S129.24,36.27,129.24,48.08z M119.62,48.08c0-6.1-4.85-11.25-10.77-11.25c-5.92,0-10.77,5.15-10.77,11.25
			c0,6.18,4.85,11.33,10.77,11.33C114.78,59.41,119.62,54.26,119.62,48.08z"/>
	</g>
	<g>
		<path class="st0" d="M132.68,83.73V28.27h6.68c1.71,0,3.09,1.38,3.09,3.09v4.36h0.08c2.69-5.23,7.62-8.64,13.31-8.64
			c9.31,0,17,8.95,17,21c0,11.96-8.08,21-17.39,21c-5.69,0-10.08-3.33-12.92-8.64h-0.08v23.29H132.68z M162.76,48.08
			c0-6.18-4.38-12.2-10.08-12.2c-5.85,0-10.23,6.02-10.23,12.2c0,6.26,4.39,12.2,10.23,12.2C158.37,60.28,162.76,54.33,162.76,48.08
			z"/>
	</g>
	<g>
		<path class="st0" d="M175.25,63.6V52.04h0.08c2.69,3.49,8.85,8,15.77,8c3.08,0,5.31-1.58,5.31-3.49c0-1.82-1.54-3.25-5.31-4.28
			c-6.38-1.74-15.54-4.52-15.54-12.6c0-7.53,6.62-12.6,15.54-12.6c4.08,0,9,1.35,12.85,3.72v10.38h-0.08
			c-2.69-2.85-7.85-5.94-12.69-5.94c-2.69,0-5.38,1.27-5.38,3.49c0,1.35,1.77,2.69,5.31,3.8c6.31,2.06,15.39,3.96,15.39,14.02
			c0,8.4-7.69,12.83-15.39,12.83C185.4,69.39,178.33,67.09,175.25,63.6z"/>
	</g>
	<g>
		<path class="st0" d="M232.81,68.2c-11.92,0-17.92-5.7-17.92-17.27V37.86h-7.54v-9.59h7.54v-9.74h6.68c1.71,0,3.09,1.38,3.09,3.09
			v6.65h8.15v9.59h-8.15v12.44c0,5.15,3.15,7.21,6.46,7.21h1.69V68.2z"/>
	</g>
	<g>
		<path class="st0" d="M235.22,16.94c0-3.33,2.69-6.18,6.08-6.18c3.31,0,6,2.85,6,6.18c0,3.33-2.69,6.18-6,6.18
			C237.91,23.12,235.22,20.27,235.22,16.94z M236.38,67.88V28.27h6.68c1.71,0,3.09,1.38,3.09,3.09v36.52H236.38z"/>
	</g>
	<g>
		<path class="st0" d="M249.71,48.16c0-12.44,9.23-21.07,21.54-21.07c7.38,0,11.62,3.72,11.62,3.72v10.38h-0.08
			c0,0-4.15-4.52-11.38-4.52c-7.08,0-11.92,4.83-11.92,11.49c0,6.5,4.85,11.41,12,11.41c7.77,0,11.31-4.36,11.31-4.36h0.08v10.46
			c0,0-4.15,3.57-11.62,3.57C258.94,69.23,249.71,60.91,249.71,48.16z"/>
	</g>
	<g>
		<path class="st0" d="M286.31,67.88V12.42h6.83c1.71,0,3.09,1.38,3.09,3.09v27.81h0.08l13.38-15.05H321L305.08,46.1l17.54,21.79
			h-12.08l-14.23-18.94h-0.08v18.94H286.31z"/>
	</g>
	<g>
		<path class="st0" d="M321.88,62.83V51.26h0.08c2.69,3.49,8.85,8,15.77,8c3.08,0,5.31-1.58,5.31-3.49c0-1.82-1.54-3.25-5.31-4.28
			c-6.38-1.74-15.54-4.52-15.54-12.6c0-7.53,6.62-12.6,15.54-12.6c4.08,0,9,1.35,12.85,3.72v10.38h-0.08
			c-2.69-2.85-7.85-5.94-12.69-5.94c-2.69,0-5.38,1.27-5.38,3.49c0,1.35,1.77,2.69,5.31,3.8c6.31,2.06,15.39,3.96,15.39,14.02
			c0,8.4-7.69,12.83-15.39,12.83C332.03,68.62,324.95,66.32,321.88,62.83z"/>
	</g>
</g>
</svg>
