<svg width="24" height="24" viewBox="0 0 24 24" fill="none" xmlns="http://www.w3.org/2000/svg">
<path fill-rule="evenodd" clip-rule="evenodd" d="M5.70696 18.2929C5.31643 18.6834 5.31643 19.3166 5.70696 19.7071C6.09748 20.0976 6.73064 20.0976 7.12117 19.7071L14.1212 12.7071L14.8283 12L14.1212 11.2929L7.12117 4.29289C6.73065 3.90237 6.09748 3.90237 5.70696 4.29289C5.31643 4.68342 5.31643 5.31658 5.70696 5.70711L11.9998 12L5.70696 18.2929ZM9.70696 18.2929C9.31643 18.6834 9.31643 19.3166 9.70696 19.7071C10.0975 20.0976 10.7306 20.0976 11.1212 19.7071L18.1212 12.7071L18.8283 12L18.1212 11.2929L11.1212 4.29289C10.7306 3.90237 10.0975 3.90237 9.70696 4.29289C9.31643 4.68342 9.31643 5.31658 9.70696 5.70711L15.9998 12L9.70696 18.2929Z" fill="#192033"/>
</svg>
