<svg width="24" height="24" viewBox="0 0 24 24" fill="none" xmlns="http://www.w3.org/2000/svg">
<path d="M4.56445 10.558C4.56445 13.9406 7.31417 16.6903 10.6967 16.6903C11.9548 16.6903 13.1074 16.3061 14.0717 15.6507L17.5371 19.1161C17.748 19.3345 18.0419 19.4325 18.3357 19.4325C18.976 19.4325 19.4355 18.9503 19.4355 18.3251C19.4355 18.0237 19.3301 17.745 19.1267 17.534L15.6839 14.0837C16.3996 13.0968 16.829 11.8764 16.829 10.558C16.829 7.1755 14.0792 4.42578 10.6967 4.42578C7.31417 4.42578 4.56445 7.1755 4.56445 10.558ZM6.16155 10.558C6.16155 8.05692 8.18806 6.02288 10.6967 6.02288C13.1978 6.02288 15.2319 8.05692 15.2319 10.558C15.2319 13.0592 13.1978 15.0932 10.6967 15.0932C8.18806 15.0932 6.16155 13.0592 6.16155 10.558Z" fill="#BBC0C6"/>
</svg>
