<svg width="49" height="48" viewBox="0 0 49 48" fill="none" xmlns="http://www.w3.org/2000/svg">
<path d="M42.54 10H38.5V5.96C38.5 4.88 37.62 4 36.54 4H36.48C35.38 4 34.5 4.88 34.5 5.96V10H30.48C29.4 10 28.52 10.88 28.5 11.96V12.02C28.5 13.12 29.38 14 30.48 14H34.5V18.02C34.5 19.1 35.38 20 36.48 19.98H36.54C37.62 19.98 38.5 19.1 38.5 18.02V14H42.54C43.62 14 44.5 13.12 44.5 12.04V11.96C44.5 10.88 43.62 10 42.54 10ZM32.5 18.02V16H30.48C29.42 16 28.42 15.58 27.66 14.84C26.92 14.08 26.5 13.08 26.5 11.96C26.5 11.24 26.7 10.58 27.04 10H10.5C8.3 10 6.5 11.8 6.5 14V38C6.5 40.2 8.3 42 10.5 42H34.5C36.7 42 38.5 40.2 38.5 38V21.44C37.9 21.78 37.22 22 36.46 22C34.28 21.98 32.5 20.2 32.5 18.02ZM32.42 38H12.5C11.68 38 11.2 37.06 11.7 36.4L15.66 31.14C16.08 30.58 16.9 30.62 17.3 31.18L20.5 36L25.72 29.04C26.12 28.52 26.9 28.5 27.3 29.02L33.2 36.38C33.72 37.04 33.26 38 32.42 38Z" fill="#192033"/>
</svg>
