<svg width="24" height="24" viewBox="0 0 24 24" fill="none" xmlns="http://www.w3.org/2000/svg">
<path fill-rule="evenodd" clip-rule="evenodd" d="M10.5859 11.728L5.50008 16.8138C5.10955 17.2043 5.10955 17.8375 5.50008 18.228C5.8906 18.6185 6.52377 18.6185 6.91429 18.228L12.0001 13.1422L17.1067 18.2488C17.4972 18.6393 18.1304 18.6393 18.5209 18.2488C18.9114 17.8583 18.9114 17.2251 18.5209 16.8346L13.4143 11.728L18.228 6.91429C18.6185 6.52376 18.6185 5.8906 18.228 5.50008C17.8375 5.10955 17.2043 5.10955 16.8138 5.50008L12.0001 10.3138L7.20718 5.52089C6.81666 5.13037 6.18349 5.13037 5.79297 5.52089C5.40244 5.91141 5.40244 6.54458 5.79297 6.9351L10.5859 11.728Z" fill="#192033"/>
</svg>
