<svg width="25" height="24" viewBox="0 0 25 24" fill="none" xmlns="http://www.w3.org/2000/svg">
<rect width="24" height="24" transform="translate(0.5)" fill="#BBC0C6"/>
<path d="M12.7394 6.57189L13.9669 7.77155C14.043 7.84651 14.1335 7.906 14.2332 7.94661C14.333 7.98721 14.4399 8.00812 14.548 8.00812C14.656 8.00812 14.763 7.98721 14.8627 7.94661C14.9624 7.906 15.0529 7.84651 15.129 7.77155C15.2532 7.64415 15.3309 7.48027 15.3502 7.30532C15.3694 7.13037 15.3291 6.9541 15.2354 6.80383H18.2306C18.4477 6.80383 18.6558 6.71956 18.8093 6.56958C18.9628 6.41959 19.049 6.21617 19.049 6.00406C19.049 5.79195 18.9628 5.58852 18.8093 5.43854C18.6558 5.28855 18.4477 5.20429 18.2306 5.20429H15.2354C15.3291 5.05402 15.3694 4.87775 15.3502 4.70279C15.3309 4.52784 15.2532 4.36397 15.129 4.23657C15.0529 4.16161 14.9624 4.10211 14.8627 4.06151C14.763 4.0209 14.656 4 14.548 4C14.4399 4 14.333 4.0209 14.2332 4.06151C14.1335 4.10211 14.043 4.16161 13.9669 4.23657L12.7394 5.43622C12.6649 5.51228 12.6065 5.60197 12.5675 5.70015C12.4857 5.89486 12.4857 6.11326 12.5675 6.30797C12.6065 6.40614 12.6649 6.49583 12.7394 6.57189ZM21.4386 9.69899C21.3997 9.60081 21.3413 9.51112 21.2668 9.43506L20.0392 8.23541C19.9631 8.16045 19.8726 8.10095 19.7729 8.06035C19.6732 8.01975 19.5662 7.99884 19.4582 7.99884C19.3501 7.99884 19.2432 8.01975 19.1434 8.06035C19.0437 8.10095 18.9532 8.16045 18.8771 8.23541C18.7529 8.36281 18.6752 8.52668 18.656 8.70163C18.6367 8.87659 18.6771 9.05286 18.7707 9.20313H15.7755C15.5585 9.20313 15.3503 9.28739 15.1968 9.43738C15.0434 9.58736 14.9571 9.79079 14.9571 10.0029C14.9571 10.215 15.0434 10.4184 15.1968 10.5684C15.3503 10.7184 15.5585 10.8027 15.7755 10.8027H18.7707C18.6771 10.9529 18.6367 11.1292 18.656 11.3042C18.6752 11.4791 18.7529 11.643 18.8771 11.7704C18.9532 11.8453 19.0437 11.9048 19.1434 11.9454C19.2432 11.9861 19.3501 12.007 19.4582 12.007C19.5662 12.007 19.6732 11.9861 19.7729 11.9454C19.8726 11.9048 19.9631 11.8453 20.0392 11.7704L21.2668 10.5707C21.3413 10.4947 21.3997 10.405 21.4386 10.3068C21.5205 10.1121 21.5205 9.8937 21.4386 9.69899ZM11.6837 10.4028C11.0362 10.4028 10.4034 10.5904 9.86503 10.9419C9.32671 11.2934 8.90714 11.7931 8.65938 12.3776C8.41162 12.9622 8.3468 13.6054 8.4731 14.226C8.59941 14.8465 8.91118 15.4165 9.36898 15.8639C9.82678 16.3113 10.4101 16.616 11.0451 16.7395C11.68 16.8629 12.3382 16.7995 12.9364 16.5574C13.5345 16.3153 14.0458 15.9052 14.4055 15.3792C14.7652 14.8531 14.9571 14.2346 14.9571 13.6019C14.9571 12.7534 14.6123 11.9397 13.9984 11.3398C13.3845 10.7398 12.5519 10.4028 11.6837 10.4028V10.4028ZM11.6837 15.2014C11.36 15.2014 11.0435 15.1076 10.7744 14.9318C10.5052 14.7561 10.2954 14.5062 10.1715 14.214C10.0476 13.9217 10.0152 13.6001 10.0784 13.2898C10.1415 12.9795 10.2974 12.6945 10.5263 12.4708C10.7552 12.2471 11.0469 12.0948 11.3644 12.0331C11.6819 11.9713 12.0109 12.003 12.31 12.1241C12.6091 12.2451 12.8647 12.4502 13.0446 12.7132C13.2244 12.9762 13.3204 13.2855 13.3204 13.6019C13.3204 14.0261 13.148 14.4329 12.841 14.7329C12.5341 15.0329 12.1178 15.2014 11.6837 15.2014ZM19.049 12.8021C18.8319 12.8021 18.6238 12.8863 18.4703 13.0363C18.3168 13.1863 18.2306 13.3897 18.2306 13.6019V17.6007C18.2306 17.8128 18.1444 18.0162 17.9909 18.1662C17.8374 18.3162 17.6293 18.4005 17.4122 18.4005H5.9551C5.73806 18.4005 5.5299 18.3162 5.37643 18.1662C5.22296 18.0162 5.13673 17.8128 5.13673 17.6007V11.2026C5.13673 10.9904 5.22296 10.787 5.37643 10.637C5.5299 10.487 5.73806 10.4028 5.9551 10.4028H7.59184C7.77132 10.4114 7.9487 10.362 8.09661 10.2622C8.24451 10.1625 8.35471 10.018 8.4102 9.85094L8.85212 8.55532C8.90328 8.40127 9.00108 8.26604 9.1326 8.1675C9.26412 8.06896 9.42315 8.01176 9.58865 8.00348H10.8653C11.0824 8.00348 11.2905 7.91922 11.444 7.76923C11.5975 7.61925 11.6837 7.41582 11.6837 7.20371C11.6837 6.9916 11.5975 6.78817 11.444 6.63819C11.2905 6.4882 11.0824 6.40394 10.8653 6.40394H9.58865C9.07194 6.40376 8.56834 6.56291 8.14957 6.85872C7.7308 7.15453 7.41821 7.57192 7.25631 8.05146L7.00261 8.80325H5.9551C5.30397 8.80325 4.6795 9.05603 4.21908 9.50599C3.75866 9.95594 3.5 10.5662 3.5 11.2026V17.6007C3.5 18.237 3.75866 18.8473 4.21908 19.2973C4.6795 19.7472 5.30397 20 5.9551 20H17.4122C18.0634 20 18.6878 19.7472 19.1483 19.2973C19.6087 18.8473 19.8673 18.237 19.8673 17.6007V13.6019C19.8673 13.3897 19.7811 13.1863 19.6277 13.0363C19.4742 12.8863 19.266 12.8021 19.049 12.8021Z" fill="#192033"/>
</svg>
