<svg width="24" height="24" viewBox="0 0 24 24" fill="none" xmlns="http://www.w3.org/2000/svg">
<g id="icon/reset">
<path id="Union" d="M12.1374 18.4712C13.3013 18.3565 14.4063 17.9309 15.3404 17.2473C15.7855 16.9215 16.4141 16.9141 16.8042 17.3042C17.1942 17.6942 17.1974 18.3319 16.7644 18.6736C16.3602 18.9924 15.9291 19.2729 15.4768 19.5123C14.5074 20.0255 13.4407 20.35 12.3331 20.4591C10.3761 20.6518 8.41276 20.16 6.77765 19.0675C5.14255 17.9749 3.93686 16.3493 3.36601 14.4674C2.79516 12.5856 2.89447 10.564 3.64703 8.7472C4.39958 6.93037 5.75881 5.43069 7.49313 4.50368C9.22745 3.57667 11.2295 3.27969 13.1583 3.66334C15.087 4.04699 16.823 5.08753 18.0706 6.60767C18.7766 7.46792 19.3014 8.45165 19.624 9.5C19.8715 10.3042 20 11.1464 20 12H21.7929C22.1834 12 22.5 12.3166 22.5 12.7071C22.5 12.8947 22.4255 13.0745 22.2929 13.2071L19.7071 15.7929C19.3166 16.1834 18.6834 16.1834 18.2929 15.7929L15.7071 13.2071C15.5745 13.0745 15.5 12.8946 15.5 12.7071C15.5 12.3166 15.8166 12 16.2071 12H18.0025C18.0025 10.4956 17.4809 9.03777 16.5265 7.87486C15.5721 6.71196 14.2441 5.91594 12.7686 5.62245C11.2931 5.32896 9.7615 5.55615 8.43474 6.26532C7.10799 6.97448 6.06818 8.12173 5.49248 9.5116C4.91677 10.9015 4.8408 12.448 5.2775 13.8876C5.7142 15.3272 6.63655 16.5708 7.88741 17.4066C9.13826 18.2424 10.6402 18.6186 12.1374 18.4712Z" fill="black"/>
</g>
</svg>
